<svg width="16" height="16" viewBox="0 0 16 16" fill="none" xmlns="http://www.w3.org/2000/svg">
<path d="M8 0C3.58173 0 0 3.58179 0 8C0 12.4182 3.58173 16 8 16C12.4183 16 16 12.4182 16 8C16 3.58179 12.4183 0 8 0ZM8 15C4.1402 15 1 11.8599 1 8C1 4.14014 4.1402 1 8 1C11.8598 1 15 4.14014 15 8C15 11.8599 11.8598 15 8 15ZM8 4C5.79083 4 4 5.79102 4 8C4 10.2092 5.79083 12 8 12C10.2091 12 12 10.2092 12 8C12 5.79102 10.2091 4 8 4ZM8 11C6.34576 11 5 9.6543 5 8C5 6.3457 6.34576 5 8 5C9.65424 5 11 6.3457 11 8C11 9.6543 9.65424 11 8 11Z" fill="white"/>
</svg>
