<svg width="21" height="20" viewBox="0 0 21 20" fill="none" xmlns="http://www.w3.org/2000/svg">
<path d="M10.1667 0C4.56042 0 0 4.48609 0 10C0 15.5139 4.56042 20 10.1667 20C15.7729 20 20.3333 15.5139 20.3333 10C20.3333 4.48609 15.7729 0 10.1667 0ZM10.1667 19.1667C5.02789 19.1667 0.847209 15.0545 0.847209 10C0.847209 4.94547 5.02789 0.83332 10.1667 0.83332C15.3054 0.83332 19.4861 4.94547 19.4861 10C19.4861 15.0545 15.3054 19.1667 10.1667 19.1667Z" fill="black"/>
<path d="M14.2084 9.64964L8.27781 5.89964C8.14791 5.81625 7.97996 5.81175 7.84593 5.88417C7.70939 5.95742 7.625 6.09742 7.625 6.24999V13.75C7.625 13.9026 7.70939 14.0426 7.84593 14.1158C7.90879 14.1496 7.97913 14.1667 8.04862 14.1667C8.12805 14.1667 8.20831 14.1447 8.27781 14.1003L14.2084 10.3503C14.3292 10.2739 14.4028 10.1416 14.4028 9.99999C14.4028 9.85839 14.3292 9.72617 14.2084 9.64964ZM8.47221 12.9866V7.01335L13.1957 9.99999L8.47221 12.9866Z" fill="black"/>
</svg>
