<svg width="150" height="67" viewBox="0 0 150 67" fill="none" xmlns="http://www.w3.org/2000/svg">
<g clip-path="url(#clip0)">
<path d="M74.1241 29.8819C74.0714 29.8516 74.0069 29.7234 74.0457 29.6497C74.0837 29.5772 74.2047 29.575 74.2785 29.584C74.7788 29.6453 75.2756 29.7469 75.7773 29.7815C76.252 29.8142 76.7312 29.782 77.2084 29.7769C77.7105 29.772 78.2126 29.7598 78.7145 29.7647C78.7946 29.7654 78.9362 29.7908 78.9537 29.8789C78.9728 29.9737 78.8428 30.0589 78.7636 30.0928C78.3102 30.2876 77.8517 30.471 77.3901 30.645C77.2516 30.697 77.0977 30.7075 76.9509 30.7368C76.9486 30.7239 76.2224 30.7403 75.8722 30.6887C75.2199 30.5926 74.683 30.2034 74.1241 29.8819ZM73.1968 34.0088C72.9893 33.5723 72.722 33.1123 72.7073 33.0601C72.4279 31.5315 72.465 29.9756 72.4951 28.4131C72.5869 28.0335 72.7249 27.6768 72.9442 27.4053C73.1239 27.1831 73.7571 26.6221 73.8917 26.4927C74.1028 26.2893 74.2531 26.076 74.3943 25.8174C74.7258 25.211 75.2466 25.3035 75.7319 25.6241C75.8433 25.6978 75.925 25.8162 76.0332 25.8965C76.6234 26.334 77.4692 26.2271 77.9635 25.6768C78.0591 25.5703 78.2123 25.4783 78.3506 25.4568C78.5707 25.4226 78.5668 25.3929 78.7809 25.4336C78.9895 25.4185 79.3608 26.0674 79.8112 26.3826C80.5857 26.9246 81.071 28.1492 81.0654 29.0335C81.0518 31.167 80.508 33.7327 79.7927 34.5161C79.5192 34.8511 79.0547 35.2007 78.9058 35.3057C78.2783 35.7486 78.0181 35.8086 77.2679 35.8787C76.6246 35.9212 76.1252 35.8728 75.544 35.7659C74.9849 35.6631 74.4683 35.3902 74.0241 35.0362C73.9753 34.9973 73.4493 34.5401 73.1968 34.0088ZM73.2378 30.667C73.2979 31.2119 73.3383 31.7486 73.4207 32.2783C73.5086 32.8443 73.6248 33.4295 74.0339 33.8699C74.2532 34.106 74.5841 34.3872 74.8623 34.5059C75.6634 34.8477 76.5225 34.9024 77.384 34.8128C77.863 34.7627 78.3297 34.6348 78.7054 34.313C78.916 34.1328 79.1048 33.9177 79.2719 33.6944C79.4304 33.4824 79.5123 33.1399 79.629 32.8255C79.7048 32.6211 79.7725 32.4131 79.8334 32.2036C80.0754 31.3716 80.2949 30.5396 80.1738 29.6533C80.1308 29.3382 79.9542 29.1768 79.7135 29.0313C79.3598 28.8169 78.9973 28.6118 78.6693 28.3616C78.4728 28.2119 78.288 28.1297 78.0501 28.1709C77.7756 28.2185 77.498 28.3238 77.2281 28.3062C76.6911 28.2715 76.1596 28.1582 75.6233 28.1026C75.4575 28.0855 75.2821 28.1431 75.1139 28.1795C75.0466 28.1939 74.9879 28.2459 74.9232 28.2764C74.3827 28.5323 73.8773 28.8428 73.4563 29.2747C73.3798 29.3531 73.3201 29.4776 73.3088 29.5865C73.2712 29.9475 73.2592 30.3113 73.2378 30.667ZM71.5392 35.5476C71.3719 35.3015 71.1718 35.0762 70.9722 34.8548C70.4323 34.2556 69.8891 33.6597 69.3389 33.0703C68.9374 32.6402 68.5048 32.2388 68.1196 31.7949C67.8057 31.4334 67.5601 31.0115 67.2491 30.6468C67.0165 30.3741 66.7437 30.1326 66.3408 30.1248C65.9998 30.1182 65.679 30.3975 65.7295 30.7359C65.7601 30.9409 65.8447 31.1685 65.9784 31.3203C66.1957 31.5669 66.4715 31.7615 66.7257 31.9744C66.8569 32.0843 67.0338 32.1599 67.1226 32.2959C67.4786 32.8413 67.801 33.4087 68.1494 33.9595C68.632 34.7222 68.9017 35.6248 69.7153 36.1675C70.5181 36.7029 71.0722 37.5449 71.9102 38.0542C72.2768 38.2771 72.594 38.5816 72.9459 38.8313C73.1738 38.9932 73.415 39.1416 73.6654 39.2644C74.5617 39.7039 75.5447 39.7166 76.5066 39.8242C76.6686 39.8242 76.8329 39.8421 76.9924 39.8213C77.7347 39.7251 78.4249 39.4585 79.0895 39.125C79.3966 38.971 79.661 38.7603 79.8676 38.4663C80.1218 38.1048 80.3851 37.739 80.7004 37.4341C81.2987 36.8557 81.9326 36.3142 82.5618 35.7696C82.6988 35.6509 82.8105 35.534 82.7358 35.3582C82.6592 35.1782 82.4903 35.0889 82.2966 35.1275C82.0256 35.1814 81.7519 35.2403 81.494 35.3367C81.1058 35.482 80.7268 35.6536 80.3503 35.8281C79.8772 36.0476 79.4109 36.282 78.9409 36.5083C78.795 36.5786 78.6489 36.6494 78.4987 36.7095C78.144 36.8508 77.7886 36.9905 77.4304 37.1223C77.145 37.2276 76.8594 37.3384 76.5654 37.4119C76.358 37.4636 76.133 37.4392 75.9218 37.48C75.4906 37.563 75.068 37.5093 74.6679 37.3672C74.1344 37.178 73.6189 36.937 73.0956 36.7183C72.4792 36.4607 71.9283 36.1196 71.5392 35.5476ZM69.2103 17.1475C68.9163 17.2247 68.6326 17.3433 68.3461 17.4483C68.1027 17.5376 67.9882 17.7647 68.0546 18.011C68.1423 18.3367 68.5313 18.5445 68.9196 18.4966C69.1311 18.4703 69.3601 18.4336 69.5591 18.4866C70.2891 18.6807 71.0118 18.9041 71.7328 19.1309C71.9456 19.1978 72.1414 19.3177 72.3488 19.4039C72.902 19.6336 73.4794 19.7627 74.0745 19.8143C74.1463 19.8143 74.2281 19.837 74.2882 19.8101C74.4941 19.7178 74.809 19.8462 74.9 19.5208C75.1369 18.6731 74.8605 18.3003 74.108 18.0821C73.5487 17.92 72.957 17.875 72.3841 17.7564C71.9711 17.6707 71.5595 17.5684 71.1575 17.441C70.5214 17.2391 69.8969 16.9666 69.2103 17.1475ZM85.1326 17.7725C84.9636 17.4644 84.8019 17.1414 84.4091 17.0713C83.7974 16.9622 83.1862 17.001 82.5811 17.1153C81.7675 17.2691 80.9547 17.4295 80.1464 17.6094C79.6278 17.7249 79.1127 17.8636 78.6057 18.0235C78.1276 18.1741 77.8394 18.5701 77.8333 19.0308C77.8739 19.2593 77.9684 19.4729 78.1838 19.6268C78.6022 19.9256 79.0386 20.1209 79.556 19.91C79.6937 19.8538 79.8194 19.7681 79.957 19.7117C80.3235 19.5616 80.7172 19.4622 81.0574 19.2666C81.8321 18.8216 82.6519 18.5162 83.5147 18.3094C83.8558 18.2276 84.1727 18.2168 84.4569 18.4678C84.5229 18.5262 84.6136 18.5562 84.6942 18.5967C84.8855 18.6929 85.034 18.6243 85.1793 18.4856C85.3321 18.3396 85.2662 18.2281 85.23 18.0257C85.2074 17.8987 85.1757 17.8511 85.1326 17.7725ZM82.6945 14.3284C82.1216 14.1978 81.5457 14.2559 80.9707 14.2825C80.6021 14.2999 80.2304 14.3172 79.8672 14.378C79.1918 14.491 78.5251 14.6607 77.8479 14.7586C77.3793 14.8262 76.8985 14.8418 76.4246 14.8287C75.8065 14.8113 75.1892 14.7505 74.5731 14.6924C74.3256 14.669 74.0838 14.5801 73.8364 14.5616C73.1966 14.513 72.5918 14.3274 71.9815 14.146C71.6595 14.0503 71.3071 13.8638 70.9826 14.1375C70.8946 14.212 70.8015 14.3819 70.8295 14.4686C70.8639 14.5745 71.0175 14.649 71.131 14.7178C71.2094 14.7654 71.3236 14.7586 71.3936 14.813C71.656 15.0167 71.8846 15.2745 72.1675 15.4395C72.5467 15.6609 72.9612 15.8228 73.3666 15.9957C73.8268 16.1917 74.2506 16.4751 74.7682 16.5337C75.2298 16.5855 75.6863 16.6832 76.0737 16.7483C76.4974 16.6978 76.8481 16.6687 77.1942 16.6114C77.8043 16.5105 78.414 16.4043 79.0194 16.2781C79.8295 16.1092 80.6481 15.9756 81.3976 15.5777C81.8704 15.3267 82.3561 15.0923 82.8779 14.9478C82.945 14.9292 83.0186 14.816 83.0312 14.7374C83.0654 14.5235 82.9155 14.379 82.6945 14.3284ZM85.0667 24.9473C84.5597 25.1084 84.2152 25.5335 83.8775 25.9385C83.6947 26.1577 83.5047 26.354 83.2877 26.4905C83.0363 26.8614 82.7767 27.2295 82.5825 27.6436C82.126 28.6165 81.928 29.4278 81.4574 30.6433C81.2512 31.3423 81.2062 31.8631 81.1946 32.0835C81.1811 32.3374 81.1528 32.8897 81.1564 32.9053C81.2026 33.1123 81.1725 33.1331 81.4012 33.2C81.4709 33.2205 81.5427 33.2073 81.6149 33.1724C81.9714 32.7193 82.2884 32.2346 82.5784 31.7329C82.9674 31.0598 83.2473 30.3225 83.5757 29.6138C83.6252 29.5069 83.6714 29.3982 83.7231 29.2923C84.0762 28.5669 84.4185 27.836 84.7909 27.1209C84.9209 26.8711 85.1077 26.6436 85.3018 26.4375C85.6533 26.0645 86.1188 25.8052 86.3685 25.3284C86.4966 25.0835 86.4436 24.8821 86.1824 24.8697C85.8105 24.8523 85.4135 24.8372 85.0667 24.9473ZM64.4655 16.6739C64.562 16.2706 64.6556 15.8646 64.7169 15.4546C64.7949 14.9327 64.9847 14.4871 65.3811 14.1248C65.5765 13.9463 65.7612 13.7286 65.7082 13.4236C65.769 13.1172 65.5888 12.9273 65.3813 12.7789C65.2856 12.7105 65.1224 12.688 65.0051 12.7144C64.8631 12.7461 64.7377 12.8521 64.6043 12.9244C64.4297 13.0191 64.3068 13.1473 64.275 13.3582C64.2316 13.6451 64.1671 13.9288 64.122 14.2156C63.9344 15.4107 63.6544 16.5821 63.2894 17.7359C63.1157 18.2852 62.999 18.8543 62.882 19.4197C62.8467 19.5904 62.8683 19.7872 62.9139 19.958C63.1223 20.7391 63.3329 21.5201 63.5723 22.2918C63.8265 23.1111 64.1032 23.9241 64.5885 24.6448C64.7043 24.8169 64.8231 24.9978 64.887 25.1927C65.0539 25.7012 65.1871 26.2207 65.3417 26.7334C65.4487 27.0884 65.5438 27.4502 65.6916 27.7881C65.7892 28.0108 66.0318 28.0525 66.2517 27.9414C66.4316 27.8506 66.6119 27.7564 66.5367 27.4908C66.2944 26.6341 66.0855 25.773 65.9386 24.8897C65.7876 23.9815 65.5168 23.0901 65.2526 22.2056C65.0765 21.616 64.854 21.0345 64.5884 20.4805C64.394 20.0752 64.1864 19.6812 64.0654 19.2456C64.0424 19.1629 63.9476 19.0823 63.9576 19.0113C64.0184 18.5806 64.0862 18.1499 64.1787 17.7256C64.256 17.3709 64.3809 17.0271 64.4655 16.6739ZM89.3586 5.40631C89.4828 5.47736 89.5922 5.61164 89.6588 5.74298C90.1832 6.77692 90.3857 7.90826 90.6122 9.03155C90.6374 9.15606 90.6472 9.28961 90.7003 9.40118C91.1105 10.2645 91.1612 11.1932 91.1811 12.1231C91.2006 13.0328 91.2078 13.9351 91.451 14.8282C91.7012 15.7466 91.9439 16.6749 91.9149 17.646C91.9415 17.6482 91.8762 18.4744 91.8127 18.8848C91.6979 19.6268 91.5021 20.3157 90.8585 20.8047C90.3237 21.2107 90.11 21.8311 90.1382 22.4683C90.1653 23.0806 90.4569 23.292 91.0184 23.0367C91.3519 22.8853 91.6422 22.6753 91.8571 22.3438C92.2068 21.8045 92.4957 21.2425 92.6276 20.6143C92.7279 20.1372 92.8144 19.6495 92.8317 19.1636C92.8621 18.3116 92.8878 17.4529 92.8192 16.605C92.715 15.3165 92.5203 14.0352 92.1216 12.7986C91.9785 12.3548 92.0005 11.9405 92.1525 11.4983C92.3967 10.7884 92.262 10.1028 91.923 9.44415C91.737 9.08258 91.5291 8.71856 91.4283 8.32989C91.2875 7.78668 91.2438 7.21832 91.1469 6.6629C91.0523 6.12091 91.0602 5.55133 90.7841 5.05475C90.5134 4.56794 90.2246 4.1009 89.5761 4.0589C89.3176 4.0423 89.1431 4.13556 88.9883 4.31867C88.845 4.48786 88.8691 4.67218 88.9404 4.85871C89.0258 5.08185 89.1341 5.27814 89.3586 5.40631ZM66.0472 14.8667C66.0075 15.0438 65.9675 15.2212 65.939 15.4004C65.8648 15.8667 65.7578 16.3321 65.7377 16.8013C65.7189 17.2395 65.778 17.6844 65.8344 18.1221C65.8843 18.5086 65.9831 18.8885 66.0509 19.273C66.1234 19.6834 66.2335 20.095 66.2399 20.5076C66.25 21.1441 66.1613 21.782 66.1623 22.4192C66.1629 22.8152 66.2249 23.2171 66.3094 23.6053C66.376 23.9107 66.6996 24.0235 66.9241 23.8565C67.1569 23.6836 67.3257 23.46 67.3498 23.1582C67.3715 22.8863 67.3765 22.6128 67.387 22.3399C67.4078 21.8047 67.389 21.2647 67.4562 20.7359C67.5624 19.9004 67.5748 19.0909 67.2149 18.3042C67.1349 18.1294 67.1273 17.9156 67.1114 17.7173C67.0795 17.3177 67.0569 16.9168 67.0455 16.5162C67.0366 16.1993 66.9966 15.8697 67.0653 15.5677C67.1832 15.0491 67.3746 14.5474 67.5361 14.0391C67.7041 13.5103 67.2473 12.8502 66.6877 12.8145C66.4529 12.7996 66.3582 12.8682 66.3889 13.1138C66.4492 13.596 66.4421 14.0513 66.1548 14.4732C66.0826 14.5792 66.0771 14.7332 66.0472 14.8667ZM87.2 27.9512C87.0498 28.3067 86.8884 28.6656 86.6733 28.9825C86.4932 29.2476 86.1938 29.4292 86.0077 29.6914C85.4814 30.4329 85.0692 31.2429 84.7702 32.1035C84.5671 32.688 84.3224 33.2105 83.7091 33.4688C83.5135 33.551 83.4075 33.8745 83.4729 34.0305C83.5992 34.3321 83.8049 34.4422 84.0952 34.3789C84.3626 34.3206 84.5309 34.1394 84.6832 33.9304C84.8773 33.6641 85.0862 33.4297 85.4305 33.3406C85.9551 33.2049 86.3606 32.8887 86.6658 32.4322C86.8569 32.1463 87.0569 31.8628 87.2827 31.605C87.912 30.8853 88.0992 30.0244 88.1026 29.1016C88.1041 28.6851 88.0494 28.2703 88.2015 27.8618C88.4485 27.1983 88.6854 26.5303 88.9024 25.856C89.0745 25.3213 89.2147 24.7757 89.36 24.2325C89.4136 24.0318 89.4412 23.8243 89.4806 23.6197C89.4705 23.618 89.4603 23.6162 89.4501 23.6145C89.4501 23.5142 89.459 23.4131 89.4482 23.314C89.4261 23.1121 89.2217 22.8958 89.0336 22.8623C88.8746 22.8343 88.5883 22.9915 88.5324 23.1724C88.4229 23.5264 88.2954 23.8824 88.249 24.2474C88.1359 25.1363 87.9086 25.9908 87.599 26.8272C87.461 27.2 87.3543 27.5857 87.2 27.9512ZM88.398 17.9986C88.3185 18.6265 88.1385 19.2549 88.113 19.8758C88.1284 20.0955 88.1861 20.2857 88.2309 20.4788C88.2853 20.7129 88.543 20.8775 88.7625 20.8453C88.9844 20.8125 89.1609 20.6084 89.1545 20.3633C89.1473 20.0918 89.1302 19.8199 89.0999 19.5503C89.0591 19.1885 89.0159 18.8394 89.1471 18.4756C89.4303 17.6905 89.6833 16.8938 89.9385 16.0984C90.0296 15.8145 90.1342 15.5247 90.1572 15.2315C90.2077 14.5877 90.2275 13.94 90.2266 13.294C90.2259 12.7701 90.2053 12.2354 89.8138 11.8216C89.7365 11.7398 89.6135 11.6636 89.5067 11.6563C89.2012 11.6346 88.8991 11.8462 88.7927 12.1402C88.5743 12.7435 88.6096 13.3536 88.7435 13.971C88.7945 14.2061 88.8158 14.4571 88.7967 14.6963C88.767 15.0672 88.6802 15.4327 88.637 15.8028C88.5515 16.5342 88.4905 17.2684 88.398 17.9986ZM85.8855 22.8741C85.8224 23.1446 85.9429 23.3037 86.2142 23.3684C86.6995 23.4837 86.9123 23.3777 87.1411 22.9275C87.5457 22.1314 87.7646 21.3011 87.6177 20.3999C87.5359 19.8977 87.4502 19.3963 87.3701 18.8941C87.2465 18.1187 87.3182 17.3531 87.4576 16.5855C87.6056 15.771 87.7206 14.9505 87.8501 14.1326C87.8024 13.6417 87.7858 13.1661 87.3729 12.8086C87.214 12.671 86.9478 12.618 86.839 12.7952C86.5931 13.1959 86.3474 13.605 86.3344 14.0972C86.3243 14.4783 86.381 14.867 86.3253 15.2396C86.2396 15.8121 86.2166 16.377 86.2574 16.9534C86.2914 17.4322 86.3477 17.9295 86.2592 18.3924C86.0965 19.2435 86.1114 20.0713 86.3052 20.9065C86.4159 21.3836 86.4009 21.837 86.1105 22.2662C85.9928 22.44 85.9344 22.6641 85.8855 22.8741ZM76.7722 31.6507C76.7047 31.5698 76.535 31.5374 76.4167 31.5462C76.1811 31.564 76.1176 31.7803 76.0009 31.9539C75.7562 32.3176 75.6067 32.7007 75.5839 33.2578C75.6097 33.3838 75.6404 33.6287 75.7122 33.8609C75.817 34.1997 76.2536 34.3941 76.5897 34.3184C76.9367 34.2403 77.0683 33.9761 77.1673 33.6956C77.3193 33.2652 77.4189 32.8091 77.2424 32.3689C77.1373 32.1072 76.9547 31.8697 76.7722 31.6507ZM88.4397 40.0798C88.6245 39.8421 88.7697 39.565 88.8917 39.2871C89.1139 38.7813 89.3265 38.2691 89.5043 37.7461C89.7144 37.1284 89.8632 36.4893 90.0751 35.8721C90.3608 35.0408 90.7159 34.2327 90.9754 33.3936C91.1674 32.773 91.3134 32.1245 91.3712 31.4788C91.4272 30.8526 91.5785 30.3084 92.0086 29.8462C92.105 29.7429 92.1476 29.5884 92.2355 29.4173C92.1392 29.2437 92.0907 29.0208 91.9592 28.9456C91.6119 28.7471 91.267 28.8667 91.1164 29.2527C90.8766 29.8677 90.6727 30.4983 90.4863 31.1321C90.1686 32.2122 89.8927 33.305 89.5671 34.3823C89.3699 35.0349 89.1547 35.6887 88.8693 36.3052C88.5923 36.9036 88.2087 37.4509 87.8839 38.0276C87.5522 38.6165 87.2028 39.1812 86.59 39.5261C86.4214 39.6211 86.296 39.7908 86.1366 39.9063C85.9331 40.0537 85.7022 40.1641 85.507 40.3208C85.2666 40.5139 85.045 40.6255 84.7197 40.5029C84.3981 40.3818 84.1091 40.6646 84.1504 41.0127C84.1807 41.2678 84.344 41.4204 84.5336 41.5767C84.9108 41.8877 85.4398 41.9282 85.8564 41.6707C86.1918 41.4631 86.5401 41.2739 86.8942 41.1006C87.4545 40.8267 88.0426 40.5913 88.4397 40.0798ZM84.7368 42.658C84.412 42.7036 84.0998 42.8418 83.7834 42.9434C83.7352 42.9587 83.6935 42.9968 83.6507 43.0271C83.5042 43.1314 83.3718 43.2725 83.2097 43.3345C82.8767 43.4627 82.5303 43.5576 82.1852 43.6504C80.9552 43.9807 79.7056 44.1672 78.4305 44.1904C77.638 44.2051 76.8461 44.2551 76.054 44.2898C75.452 44.3164 74.8459 44.4011 74.2489 44.3579C73.317 44.2905 72.3912 44.136 71.4625 44.0212C71.3749 44.0103 71.2847 44.0225 71.1959 44.0191C70.7358 44.0012 70.3888 44.3052 69.9959 44.468C69.6274 44.6209 69.5391 45.0315 69.7747 45.2637C69.8745 45.3621 70.0045 45.4448 70.1359 45.4919C70.6275 45.6682 71.127 45.8225 71.6202 45.9946C71.8148 46.0625 71.9998 46.158 72.191 46.2363C72.6145 46.4094 73.0312 46.605 73.4653 46.7454C74.1182 46.9565 74.7554 47.1885 75.3315 47.5767C75.5144 47.7 75.729 47.814 75.9419 47.8464C76.7792 47.9736 77.6166 48.0627 78.471 47.9448C78.9819 47.8743 79.4133 47.6533 79.8474 47.417C79.9942 47.3369 80.1387 47.2231 80.0614 47.0005C79.9865 46.7849 79.8685 46.6289 79.6264 46.6135C79.5548 46.6089 79.4821 46.6179 79.4102 46.6243C79.1236 46.6494 78.8375 46.6858 78.5504 46.6997C77.5226 46.7498 76.5289 46.4873 75.5207 46.3557C74.7324 46.2527 74.1427 45.6558 73.3805 45.4895C73.351 45.4829 73.3331 45.4216 73.3099 45.386C73.356 45.3743 73.4045 45.3467 73.448 45.3533C74.0408 45.4426 74.6376 45.5134 75.2242 45.6345C76.579 45.9138 77.9469 45.9285 79.3179 45.8696C79.9194 45.8438 81.1246 45.7537 81.1274 45.7744C81.6507 45.6946 82.1759 45.6252 82.697 45.5322C83.6268 45.3667 84.5291 45.1284 85.2352 44.4321C85.2659 44.4019 85.311 44.3867 85.349 44.3638C85.7291 44.1343 85.9969 43.8191 86.0436 43.3611C86.0541 43.2581 86.0103 43.1074 85.9365 43.0444C85.5936 42.7517 85.1814 42.5955 84.7368 42.658ZM68.1826 43.8169C68.1245 43.5542 67.96 43.4019 67.7442 43.3501C67.3229 43.2495 67.1572 42.9138 66.9969 42.5857C66.7826 42.147 66.5791 41.7139 66.2846 41.3132C65.6088 40.3936 64.9948 39.4317 64.5078 38.3884C64.2322 37.7981 63.8594 37.2549 63.5586 36.6756C63.2835 36.1458 63.041 35.5982 62.7944 35.0537C62.6533 34.7422 62.4087 34.5615 62.1118 34.4256C61.6888 34.232 61.4621 33.8452 61.4011 33.4287C61.3371 32.9912 61.3921 32.5291 61.4438 32.0835C61.5088 31.5244 61.6319 30.9722 61.7143 30.4146C61.8083 29.7779 61.8454 29.1292 62.1652 28.5476C62.2741 28.3496 62.3647 28.1411 62.4748 27.9439C62.543 27.8218 62.6284 27.7088 62.7128 27.597C62.8126 27.4646 62.9717 27.3533 63.0137 27.2063C63.1364 26.7769 62.8285 26.2574 62.4089 26.1187C62.215 26.0547 61.8312 26.2117 61.7544 26.4046C61.5879 26.8228 61.3492 27.2205 61.3727 27.6973C61.3753 27.7493 61.3524 27.8033 61.3373 27.8553C61.1186 28.6048 60.9083 29.3567 60.6772 30.1021C60.5001 30.6734 60.3337 31.253 60.0944 31.7984C59.8568 32.3396 59.6835 32.8843 59.6518 33.4199C59.6374 33.9038 59.8751 34.5498 60.2303 34.9434C60.5802 35.3311 60.881 35.7449 61.0508 36.2434C61.4339 37.3687 61.9851 38.4133 62.5749 39.4356C62.7952 39.8174 63.1226 40.1348 63.3752 40.4998C63.8253 41.1499 64.3433 41.7344 64.9406 42.2483C65.1157 42.3989 65.3016 42.5378 65.4667 42.699C65.8655 43.0879 66.0731 43.5837 66.257 44.104C66.3624 44.4024 66.5234 44.7163 66.7476 44.9275C67.0306 45.1943 67.4138 45.3491 67.734 45.5801C67.9434 45.7312 68.1558 45.7795 68.353 45.636C68.5734 45.4756 68.5854 45.2185 68.5137 44.9663C68.4045 44.5828 68.2684 44.2056 68.1826 43.8169ZM67.4709 24.8775C67.4018 24.8965 67.3151 24.9624 67.2933 25.0266C67.1927 25.3228 67.1078 25.6407 67.3083 25.9175C67.5619 26.2676 67.8416 26.6006 68.1312 26.9214C68.5803 27.4192 69.0521 27.8936 69.3041 28.5401C69.4454 28.9024 69.6091 29.2591 69.7985 29.5977C70.0277 30.0078 70.2976 30.3943 70.5452 30.794C70.8494 31.2852 71.2435 32.2349 71.524 32.3052C71.6432 32.3552 71.8173 32.2608 71.8466 32.2454C72.1671 32.0755 72.0901 31.4512 72.059 30.9492C72.0269 30.4334 71.8939 29.8504 71.7695 29.3606C71.6044 28.7937 71.412 28.5154 71.205 28.219C70.9319 27.8282 70.5084 27.0928 70.1122 26.752C70.0276 26.679 69.9498 26.6028 69.8756 26.5244C69.764 26.47 69.659 26.3982 69.5673 26.2945C69.2739 25.9627 68.9684 25.6387 68.7054 25.2832C68.3576 24.813 67.9497 24.7454 67.4709 24.8775ZM106.736 41.2166C106.575 40.9795 106.383 40.7568 106.173 40.5632C105.847 40.2634 105.505 39.9966 105.037 39.9214C104.203 39.7876 103.531 39.3582 103.004 38.6878C102.93 38.594 102.786 38.51 102.671 38.5049C102.299 38.4883 101.944 38.5708 101.717 38.9068C101.581 39.1079 101.456 39.3228 101.365 39.5474C101.125 40.1411 100.762 40.625 100.193 40.9229C99.7717 41.1433 99.3367 41.3369 98.9059 41.5381C98.6458 41.6597 98.5023 41.8591 98.532 42.0764C98.5787 42.4182 99.155 42.7515 99.4354 42.5549C99.7033 42.3672 99.9995 42.3945 100.278 42.3108C100.491 42.2471 100.729 42.1973 100.894 42.0628C101.305 41.7263 101.675 41.3394 102.073 40.9859C102.176 40.8948 102.326 40.7891 102.445 40.7984C102.955 40.8377 103.432 41.0078 103.849 41.312C104.22 41.582 104.558 41.9014 104.943 42.146C105.259 42.3462 105.609 42.523 105.969 42.6123C106.585 42.7656 106.938 42.4746 107 41.8215C106.914 41.6182 106.857 41.3955 106.736 41.2166ZM99.003 39.5042C99.2905 39.0554 99.4981 38.554 99.7341 38.0723C99.7729 37.9932 99.7824 37.8997 99.7949 37.8526C99.7712 37.5215 99.7606 37.2449 99.5803 36.9844C99.3872 36.7053 99.3185 36.6155 98.9957 36.7151C98.6632 36.8174 98.3417 36.9634 98.0261 37.1135C97.3819 37.4199 97.006 37.9995 96.8646 38.6443C96.6823 39.4754 96.3669 40.2285 95.8963 40.9077C95.6236 41.3015 95.2527 41.6416 94.8763 41.9426C94.3318 42.3774 93.6444 42.5259 93.0053 42.7659C92.7834 42.8491 92.6375 42.9963 92.581 43.2224C92.5018 43.5388 92.7494 43.8088 93.0612 43.7439C93.2622 43.7022 93.4641 43.6494 93.6544 43.5728C94.014 43.4282 94.3722 43.2766 94.7183 43.1023C95.0215 42.9495 95.3275 42.7881 95.5964 42.583C96.0613 42.2278 96.4999 41.8372 96.9472 41.4585C97.3666 41.1035 97.7945 40.7578 98.1968 40.3838C98.4879 40.1135 98.7911 39.8352 99.003 39.5042ZM94.4095 38.159C94.6019 37.8794 94.812 37.593 94.9166 37.2769C95.0317 36.9287 95.0389 36.5437 95.0858 36.1738C95.1373 35.7681 94.9746 35.4353 94.7514 35.1094C94.4615 34.6861 94.1932 34.2466 93.9343 33.803C93.8175 33.6028 93.7328 33.3804 93.6561 33.1602C93.4628 32.6048 93.1182 32.0733 93.3645 31.4402C93.3837 31.3907 93.382 31.333 93.3857 31.3072C93.3854 30.9366 93.1982 30.7732 92.8799 30.8872C92.715 30.9466 92.5401 31.072 92.4451 31.2178C92.1932 31.604 92.1504 32.0562 92.1876 32.5059C92.2081 32.7549 92.2502 33.0205 92.359 33.2398C92.5886 33.7027 92.8693 34.1394 93.1265 34.5884C93.1575 34.6424 93.1834 34.7036 93.1938 34.7647C93.3167 35.4844 93.5807 36.1926 93.2859 36.9373C93.0897 37.4326 92.9517 37.9514 92.761 38.4492C92.6058 38.855 92.3608 39.231 92.2476 39.6458C92.1189 40.1165 92.0575 40.3015 91.3776 40.4658C91.1613 40.5181 90.9163 40.564 90.752 40.6978C90.358 41.0181 89.99 41.375 89.6379 41.7429C89.3016 42.0945 89.001 42.4807 88.6801 42.8474C88.358 43.2158 88.0216 43.5718 87.7111 43.9497C87.6398 44.0366 87.5852 44.2407 87.6337 44.3037C87.739 44.4409 87.9105 44.552 88.1114 44.4695C88.4852 44.3157 88.8704 44.1812 89.2231 43.9873C89.4598 43.8569 89.7533 43.677 89.8361 43.4502C89.9871 43.0371 90.2763 42.7441 90.5097 42.4038C90.6487 42.2012 90.8246 42.0523 91.1099 42.0503C91.2654 42.0491 91.4379 41.9509 91.5704 41.8521C91.727 41.7356 91.846 41.5684 91.9857 41.4277C92.5312 40.8784 92.9413 40.2263 93.3752 39.5908C93.7072 39.1045 94.0754 38.6436 94.4095 38.159ZM64.4483 44.4888C64.4148 44.4592 64.3688 44.4446 64.3339 44.4165C64.2318 44.3345 64.1211 44.2593 64.0338 44.1631C63.5549 43.6343 63.083 43.0991 62.6062 42.5686C62.4498 42.3945 62.2674 42.2415 62.1293 42.0542C61.7797 41.5806 61.4807 41.0654 61.1017 40.6184C60.6481 40.0838 60.1229 39.6118 59.6467 39.0957C59.2167 38.6299 58.8932 38.0874 58.7809 37.4561C58.6871 36.9278 58.6232 36.3975 58.3195 35.939C58.0475 35.5286 57.7102 35.2061 57.2314 35.146C56.9279 35.1336 56.4629 35.4578 56.4318 35.7446C56.3913 36.1172 56.3569 36.5127 56.437 36.8721C56.6744 37.9361 57.3129 38.7793 58.0587 39.5313C58.5556 40.0325 59.1327 40.4522 59.632 40.9512C60.1284 41.4473 60.5801 41.9902 61.037 42.5252C61.4303 42.9854 61.7646 43.5039 62.1949 43.9233C62.752 44.4668 63.3697 44.948 64.1799 45.0772C64.3815 45.1094 64.5599 45.0991 64.6495 44.9146C64.7434 44.7212 64.5768 44.6016 64.4483 44.4888ZM68.0965 5.41169C68.4795 5.26471 68.6196 4.9195 68.4846 4.49909C68.4546 4.40534 68.4431 4.26423 68.4919 4.19391C68.6558 3.95759 68.8299 3.72028 69.0382 3.52497C69.5652 3.03059 70.2085 2.72883 70.8961 2.55964C71.3818 2.44001 71.8958 2.44392 72.3893 2.35065C73.5094 2.13923 74.636 2.04328 75.7758 2.05769C76.2694 2.09577 76.7633 2.13044 77.2566 2.17292C78.5338 2.28327 79.8057 2.45246 81.0396 2.80207C81.9483 3.05964 82.8298 3.41511 83.7225 3.72956C84.0399 3.84137 84.1646 4.00104 84.1589 4.33796C84.1535 4.66242 84.1051 4.98615 84.1007 5.31061C84.0991 5.4339 84.1291 5.60334 84.2107 5.67389C84.5646 5.97907 85.335 5.74933 85.4289 5.2862C85.5124 4.87433 85.5117 4.43903 85.4973 4.01569C85.49 3.80256 85.4048 3.5716 85.2933 3.38654C85.0709 3.01716 84.7649 2.7364 84.3445 2.57868C84.0087 2.4527 83.6989 2.25739 83.3719 2.10554C83.168 2.01081 82.9553 1.9344 82.7436 1.85798C82.2963 1.69685 81.834 1.57014 81.4025 1.37409C80.9952 1.18904 80.6223 0.927805 80.2286 0.710765C79.9455 0.554515 79.6267 0.451243 79.3722 0.259349C79.1299 0.0762441 78.8844 -0.00578702 78.598 0.000316474C77.9766 0.0139884 77.3536 0.0103263 76.7345 0.0574453C76.1628 0.101146 75.5966 0.213939 75.0256 0.272045C74.6806 0.307445 74.3274 0.333568 73.9846 0.298168C73.4794 0.246166 72.9832 0.206127 72.4874 0.353099C72.1782 0.444896 71.8663 0.527903 71.5534 0.605784C70.7687 0.801341 70.0286 1.08747 69.447 1.68244C69.0605 2.07795 68.5815 2.31672 68.105 2.57478C67.8495 2.71345 67.5973 2.93684 67.4543 3.18659C67.2947 3.46491 67.2305 3.81232 67.1818 4.13825C67.1429 4.3985 67.1477 4.68195 67.2083 4.93683C67.2917 5.28742 67.7932 5.5279 68.0965 5.41169ZM63.585 33.7051C63.6442 33.8716 63.7827 34.0164 63.9071 34.1504C64.0793 34.3355 64.2997 34.4798 64.4512 34.6792C64.9874 35.3841 65.5029 36.1052 66.0265 36.8198C66.1068 36.9295 66.1848 37.041 66.2709 37.1458C66.7193 37.6914 67.1863 38.2224 67.6137 38.7842C67.8701 39.1214 68.0342 39.5308 68.2958 39.8628C68.7323 40.4168 69.1994 40.9483 69.6804 41.4636C70.1086 41.9226 70.5853 42.3286 71.2073 42.5078C71.4751 42.5847 71.7416 42.6668 72.0108 42.7383C72.4442 42.8533 72.8741 43.0003 73.3153 43.0618C73.8186 43.1321 74.3289 43.1575 74.8412 43.1746C75.9763 43.2124 77.0858 43.0513 78.1993 42.9043C78.552 42.8577 81.0034 42.0432 81.8018 41.5591C82.0026 41.4375 82.1876 41.2459 82.3096 41.043C82.6876 40.4151 83.031 39.7659 83.3893 39.126C83.8777 38.2537 84.5175 37.5354 85.4266 37.0933C85.9048 36.8606 86.3939 36.6482 86.8597 36.3926C87.5969 35.9878 88.0372 35.3718 88.198 34.5174C88.3336 33.7967 88.5448 33.0874 88.7681 32.3877C88.9724 31.7483 89.2399 31.1297 89.4754 30.5003C89.6595 30.0081 89.8405 29.5147 90.0166 29.0196C90.1323 28.6944 90.2233 28.3599 90.3494 28.0391C90.5966 27.4099 90.6889 26.7176 91.1301 26.1641C91.2273 26.0423 91.2338 25.8262 91.2363 25.6526C91.2393 25.439 91.0812 25.3716 90.882 25.4507C90.4862 25.6075 90.2427 25.896 90.0988 26.2918C89.7294 27.3074 89.3518 28.3201 88.9806 29.335C88.6848 30.1438 88.4062 30.9593 88.0961 31.7625C87.8774 32.3286 87.6396 32.8897 87.3713 33.4336C87.1713 33.8389 86.9184 34.219 86.6714 34.5987C86.4301 34.9697 86.1991 35.357 85.9019 35.6792C85.6758 35.9241 85.3731 36.124 85.0677 36.2595C84.7519 36.3999 84.3951 36.4588 84.0503 36.5169C83.1805 36.6636 82.5367 37.1807 81.992 37.8237C81.5067 38.3965 81.1197 39.0567 80.6174 39.6118C80.1656 40.1113 79.6277 40.5352 79.1061 40.9656C78.7116 41.291 78.1905 41.188 77.731 41.2954C77.4198 41.3684 75.6655 41.3748 75.1202 41.3748C74.0713 41.3291 73.0934 41.0322 72.1449 40.6148C71.7955 40.4612 71.506 40.2227 71.3152 39.8977C71.0231 39.4004 70.6295 39.0183 70.1638 38.6939C69.8162 38.4517 69.4897 38.1787 69.1481 37.9273C68.7851 37.6599 68.4119 37.4068 68.0499 37.1382C67.7853 36.9422 67.4999 36.761 67.2793 36.521C66.6736 35.8623 66.1246 35.1487 65.5006 34.5091C64.9953 33.9912 64.7779 33.3816 64.68 32.6931C64.645 32.4466 64.6131 32.1812 64.4977 31.9702C64.3999 31.7915 64.3985 31.6275 64.4047 31.4534C64.4269 30.8365 64.3397 30.2105 64.5295 29.6065C64.666 29.1721 64.6829 28.7315 64.6374 28.2827C64.6088 27.9988 64.5135 27.8655 64.2836 27.8582C64.0593 27.8509 63.9678 28.0244 63.9297 28.2061C63.874 28.4717 63.8323 28.7432 63.8159 29.0142C63.7878 29.4751 63.819 29.9419 63.7598 30.3972C63.7054 30.8164 63.6177 31.2486 63.4458 31.6294C63.294 31.9654 63.2372 32.2893 63.2964 32.6292C63.3599 32.9942 63.4609 33.356 63.585 33.7051ZM64.7616 7.29205C65.1942 7.5484 65.6384 7.78741 66.0531 8.07037C66.4066 8.31158 66.7286 8.60065 67.0582 8.87604C67.2932 9.07281 67.4893 9.34137 67.7541 9.47052C68.0674 9.62311 68.7924 9.69366 68.7982 9.66681C69.1309 9.68902 69.466 9.69293 69.7959 9.73687C70.7971 9.86993 71.7972 10.0132 72.796 10.1641C73.1612 10.2193 73.5275 10.2857 73.8829 10.3851C74.498 10.5567 75.1016 10.7708 75.7172 10.9405C76.0012 11.0186 76.3029 11.0735 76.5953 11.0684C77.117 11.0594 77.6379 10.9976 78.1589 10.9561C78.3389 10.942 78.5219 10.9398 78.6973 10.9024C79.3837 10.7569 80.0667 10.595 80.7527 10.4478C81.2464 10.3419 81.7507 10.2781 82.2364 10.1446C83.0016 9.93365 83.758 9.68853 84.5123 9.43976C84.7654 9.3565 85.0256 9.2525 85.2391 9.09723C85.7708 8.71051 86.2781 8.28937 86.7941 7.88068C87.0486 7.67926 87.3223 7.4964 87.5497 7.26715C88.0739 6.73834 88.2114 6.01203 87.9119 5.44464C87.8056 5.24323 87.6642 5.04328 87.4084 5.03669C87.0807 5.02839 86.8246 5.20661 86.7339 5.51886C86.6823 5.6966 86.6811 5.89435 86.6849 6.08258C86.6906 6.36139 86.606 6.55426 86.354 6.7132C85.835 7.04035 85.3041 7.3653 84.8466 7.77032C84.3273 8.2298 83.7505 8.43976 83.0819 8.49225C82.3553 8.54962 81.6297 8.62579 80.9064 8.71564C80.5705 8.75738 80.239 8.91852 79.9091 8.90851C79.038 8.88165 78.168 8.99981 77.295 8.8819C76.8178 8.81744 76.325 8.88238 75.8419 8.84967C74.8187 8.77984 73.7968 8.68902 72.7752 8.59772C71.762 8.50714 70.7483 8.41778 69.7376 8.30304C69.2489 8.24737 68.7608 8.18048 68.3015 7.95904C67.8817 7.7569 67.4358 7.60846 66.9984 7.4444C66.5752 7.28571 66.2508 7.0152 66.0272 6.61847C65.9429 6.46881 65.8519 6.32282 65.7569 6.18C65.6042 5.95026 65.4955 5.71588 65.6666 5.44953C65.7574 5.30817 65.8427 5.15558 65.962 5.04157C66.3681 4.65436 66.3403 4.23224 65.8228 4.05744C65.4685 3.93805 65.0602 3.95392 64.6775 3.96344C64.5451 3.96686 64.3798 4.10798 64.2938 4.23151C64.0861 4.53058 63.9405 4.86164 63.9823 5.24787C64.0136 5.53644 64.0043 5.8321 64.0595 6.1153C64.1514 6.58673 64.316 7.02838 64.7616 7.29205ZM61.0325 12.813C61.044 13.2742 60.9781 13.7413 61.0262 14.1971C61.1055 14.9476 61.1903 15.6907 61.0826 16.4463C60.998 17.0401 60.9151 17.6375 60.8914 18.2356C60.8589 19.054 60.8832 19.8748 60.8832 20.886C60.9031 21.1773 60.9237 21.659 60.9737 22.1375C60.9969 22.3604 61.0672 22.5801 61.1336 22.7957C61.2671 23.2286 61.4402 23.6512 61.545 24.0906C61.6428 24.5013 61.9662 24.709 62.2186 24.9829C62.2512 25.0186 62.3376 25.0183 62.3964 25.0113C62.6503 24.9815 62.8626 24.7334 62.8089 24.4681C62.6962 23.9109 62.6794 23.3287 62.4016 22.8111C62.3118 22.6441 62.2004 22.4688 62.1783 22.2876C62.0905 21.5689 61.9894 20.8467 61.9763 20.1246C61.955 18.9424 61.8723 17.7598 62.1868 16.5848C62.3439 15.9976 62.3051 15.3565 62.3497 14.7393C62.3727 14.4219 62.3309 14.0884 62.4134 13.7891C62.5316 13.3602 62.5856 12.9302 62.5574 12.4971C62.5324 12.1119 62.4355 11.7313 62.3652 11.3497C62.2859 10.92 61.9952 10.6077 61.7499 10.2772C61.4469 9.86871 61.1931 9.84967 60.9567 10.1878C60.8922 10.2801 60.838 10.4083 60.8433 10.5167C60.8619 10.8956 60.9109 11.273 60.9438 11.6512C60.9775 12.0381 61.0228 12.4251 61.0325 12.813ZM63.0962 9.36187C63.3518 9.50763 63.4661 9.71563 63.574 9.95709C63.688 10.2122 63.7806 10.4839 63.9339 10.7132C64.2203 11.1419 64.712 11.3162 65.1274 11.5704C65.4742 11.7825 65.887 11.8909 66.2787 12.0196C66.7143 12.1624 67.155 12.295 67.6013 12.3973C68.0367 12.4971 68.4855 12.5359 68.9221 12.6314C69.7037 12.8025 70.4753 12.9952 71.2874 13.0071C72.1075 13.0191 72.9299 13.1045 73.6949 13.4537C74.2322 13.6988 74.7764 13.8858 75.3828 13.8289C75.8404 13.7857 76.7616 13.772 76.7621 13.7815C77.1755 13.7535 77.6002 13.7762 77.9999 13.6863C78.8207 13.5018 79.6371 13.3038 80.4836 13.3465C81.6114 13.4036 82.6946 13.2144 83.7423 12.8011C84.5396 12.4864 85.3284 12.1487 86.1322 11.8521C87.1755 11.4673 88.1455 10.9605 88.9834 10.2173C89.2898 9.94537 89.5416 9.64117 89.6713 9.22711C89.8721 8.586 89.6597 7.98492 89.5539 7.3736C89.5411 7.29987 89.3853 7.21051 89.2887 7.20075C89.0106 7.17291 88.7025 7.42267 88.6346 7.70392C88.5834 7.91632 88.525 8.12921 88.5004 8.34527C88.4639 8.66754 88.2949 8.87872 88.0252 9.03009C87.7422 9.18902 87.4614 9.35211 87.1825 9.51812C86.8586 9.71075 86.556 9.95465 86.2115 10.0938C85.6966 10.3021 85.1511 10.4319 84.6222 10.606C83.705 10.9078 82.7947 11.2317 81.8735 11.5201C81.2213 11.7242 80.5651 11.9517 79.8937 12.0474C79.1021 12.1605 78.2924 12.1546 77.4899 12.1761C77.113 12.1861 76.7282 12.1766 76.3581 12.1114C75.5894 11.9761 74.8473 11.7422 74.0584 11.6541C72.991 11.5352 71.9274 11.3931 70.8542 11.4041C70.1088 11.4117 69.4108 11.2852 68.7347 10.9683C67.887 10.5709 66.9849 10.3487 66.0609 10.2339C65.3691 10.1483 64.7984 9.66461 64.6418 8.9837C64.6139 8.86212 64.569 8.73712 64.5019 8.63361C64.1782 8.13385 63.7281 7.83917 63.1238 7.84747C62.941 7.84991 62.7849 7.93903 62.7107 8.14337C62.5389 8.61652 62.6626 9.11481 63.0962 9.36187ZM58.1262 42.4871C57.8431 42.3909 57.6522 42.2114 57.5395 41.9358C57.4239 41.6526 57.2653 41.407 56.9753 41.27C56.7897 41.1826 56.597 41.0991 56.4327 40.9788C55.9028 40.5903 55.3795 40.1922 54.8635 39.7852C54.4679 39.4734 54.0815 39.1489 53.7014 38.8179C53.403 38.5581 53.1016 38.2969 52.8359 38.0044C52.5461 37.6856 52.2577 37.3838 51.8462 37.2227C51.5475 37.1057 51.4246 37.1177 51.1977 37.3484C50.8993 37.6519 50.6421 37.9824 50.474 38.3816C50.4306 38.4844 50.3389 38.5759 50.2502 38.6485C49.9424 38.9007 49.618 39.1323 49.3167 39.3916C49.1686 39.5191 49.0546 39.6878 48.9304 39.8423C48.8068 39.9961 48.6874 40.1533 48.5702 40.3125C48.3739 40.5786 48.0939 40.8218 48.0073 41.1211C47.8889 41.531 47.6848 41.7525 47.2966 41.8701C47.0435 41.9468 46.9367 42.2446 47.0378 42.4739C47.155 42.7395 47.5126 42.9275 47.7154 42.8193C48.0906 42.6191 49.014 42.0342 49.1175 42.0044C49.459 41.906 49.7582 41.7402 49.9788 41.4346C50.2051 41.1206 50.4421 40.8067 50.7205 40.542C50.9557 40.3184 51.272 40.1841 51.5233 39.9744C51.686 39.8386 51.8433 39.7715 52.0401 39.8176C52.1965 39.854 52.3501 39.9072 52.5001 39.9658C53.361 40.3013 54.1043 40.8027 54.7408 41.4878C55.149 41.9273 55.5931 42.3489 56.0797 42.6941C56.7109 43.1421 57.4776 43.1904 58.2269 43.2319C58.3262 43.2319 58.4355 43.2583 58.5221 43.2251C58.6188 43.1878 58.7479 43.1074 58.7653 43.0249C58.7834 42.9387 58.7106 42.7913 58.6323 42.7354C58.4809 42.6274 58.3034 42.5474 58.1262 42.4871Z" fill="black"/>
</g>
<g clip-path="url(#clip1)">
<path d="M47.4952 54.753C47.4479 54.7058 47.4215 54.668 47.4168 54.6397C47.4121 54.6114 47.4334 54.574 47.4811 54.5266L48.7333 53.2806C48.781 53.2334 48.8189 53.2122 48.8475 53.2168C48.8756 53.222 48.9135 53.2478 48.9612 53.295L50.1993 54.5266C50.2466 54.574 50.2726 54.6114 50.2777 54.6397C50.2824 54.668 50.2611 54.7058 50.2137 54.753L48.9612 55.9991C48.9135 56.0464 48.8756 56.0677 48.8475 56.0625C48.8189 56.0579 48.781 56.032 48.7333 55.9849L47.4952 54.753ZM40.67 60.8555C40.7173 60.9028 40.7553 60.9287 40.7838 60.9334C40.8123 60.938 40.8498 60.917 40.8975 60.8694L42.1501 59.6238C42.1974 59.5762 42.2187 59.5386 42.214 59.5103C42.2089 59.4822 42.1829 59.4444 42.1356 59.397L40.8975 58.1653C40.8498 58.1182 40.8123 58.0923 40.7838 58.0874C40.7553 58.0825 40.7173 58.1038 40.67 58.1514L39.4175 59.397C39.3698 59.4444 39.3484 59.4822 39.3536 59.5103C39.3582 59.5386 39.3842 59.5762 39.4315 59.6238L40.67 60.8555ZM16.7653 58.3777C16.6468 58.1135 16.49 57.8704 16.2958 57.6487C16.1011 57.427 15.8616 57.2405 15.577 57.0891C15.2732 56.9383 14.9294 56.804 14.5452 56.6856C14.1609 56.5679 13.7532 56.4639 13.3212 56.3741C12.8896 56.2847 12.4367 56.2022 11.9621 56.1265C11.4875 56.0513 11.0179 55.9756 10.5532 55.8999C10.0785 55.8242 9.63293 55.7464 9.21539 55.6663C8.79784 55.5862 8.43487 55.4871 8.12682 55.3692C7.81841 55.251 7.57641 55.1048 7.40087 54.9302C7.22533 54.7554 7.13757 54.5313 7.13757 54.2574C7.13757 53.9742 7.22533 53.6866 7.40087 53.3941C7.57641 53.1016 7.80389 52.8228 8.08422 52.5586C8.3637 52.2945 8.67687 52.0489 9.02325 51.8223C9.36962 51.5957 9.71813 51.3977 10.0691 51.2278C10.4581 51.0293 10.9183 50.8548 11.4499 50.7039C11.9813 50.553 12.5219 50.4488 13.0723 50.3924C13.6224 50.3355 14.1468 50.3406 14.6448 50.4063C15.1429 50.4725 15.5579 50.6238 15.8902 50.8594C16.0231 50.9539 16.1058 51.0061 16.1394 51.0154C16.1722 51.0247 16.1982 50.9634 16.2173 50.8311C16.2366 50.7276 16.2433 50.6307 16.2386 50.5411C16.234 50.4512 16.2267 50.3641 16.2173 50.2793C16.1982 50.0901 16.1581 49.897 16.0964 49.6985C16.0346 49.5 15.9541 49.3091 15.8544 49.125C15.7551 48.9412 15.6388 48.7737 15.5059 48.6224C15.373 48.4715 15.2306 48.3536 15.079 48.2686C14.7565 48.0701 14.4361 47.9312 14.1183 47.8511C13.8004 47.7708 13.5039 47.7305 13.2287 47.7305C12.5837 47.7305 11.9288 47.7942 11.2646 47.9217C10.6005 48.0489 9.95751 48.2378 9.33636 48.4881C8.71478 48.7381 8.12896 49.0472 7.57897 49.4153C7.0285 49.7833 6.54919 50.2037 6.14147 50.6756C5.73333 51.1477 5.41082 51.6714 5.17352 52.2471C4.93621 52.8228 4.8178 53.4458 4.8178 54.1158C4.8178 54.8994 4.96221 55.5413 5.25188 56.0415C5.54119 56.542 5.93273 56.9527 6.42608 57.273C6.91943 57.5943 7.49078 57.8516 8.14092 58.0449C8.79064 58.2385 9.47143 58.4107 10.1833 58.5615C10.7427 58.6846 11.2433 58.7905 11.6847 58.8804C12.1257 58.9702 12.498 59.0642 12.8018 59.1636C13.1056 59.2627 13.3378 59.3758 13.4992 59.5034C13.6603 59.6304 13.7412 59.7932 13.7412 59.9917C13.7314 60.2464 13.6487 60.5037 13.492 60.7634C13.3356 61.023 13.1171 61.2781 12.8376 61.5281C12.5577 61.7781 12.2275 62.0235 11.8483 62.2642C11.4687 62.5047 11.0512 62.7385 10.5958 62.9649C10.283 63.1162 9.94134 63.2532 9.5711 63.3755C9.20135 63.4985 8.81915 63.6045 8.42547 63.6939C8.03185 63.7837 7.63091 63.8594 7.2232 63.9207C6.81506 63.9822 6.41631 64.0266 6.02776 64.0552C5.29662 64.1211 4.6137 64.1001 3.97808 63.9915C3.3424 63.8831 2.79705 63.6636 2.34161 63.3333C2.26537 63.2578 2.18487 63.168 2.09966 63.064C2.01403 62.9602 1.9522 62.8374 1.91473 62.6958C1.85766 62.5169 1.8883 62.3372 2.00719 62.158C2.1256 61.9785 2.27264 61.8113 2.44811 61.6553C2.62365 61.4998 2.80175 61.3604 2.98199 61.2378C3.16216 61.1152 3.28997 61.0208 3.36626 60.9546C3.48937 60.813 3.48467 60.6902 3.3518 60.5864L1.77245 59.4822C1.70598 59.4444 1.64886 59.4253 1.60161 59.4253C1.55389 59.4253 1.48742 59.4492 1.40221 59.4961C0.889701 59.9024 0.514762 60.3621 0.277884 60.8767C0.0405793 61.3911 -0.0446259 61.9741 0.0218415 62.625C0.0691437 63.1162 0.187552 63.5859 0.377554 64.0339C0.567191 64.4824 0.818534 64.8857 1.13164 65.2444C1.44482 65.6035 1.80993 65.9124 2.2279 66.1719C2.64495 66.4312 3.11022 66.6177 3.62231 66.7312C4.08709 66.835 4.5545 66.9058 5.02441 66.9436C5.49389 66.9814 5.94677 67 6.38348 67C6.98119 67 7.59045 66.9648 8.21203 66.894C8.83324 66.8232 9.45013 66.7122 10.0624 66.5613C10.6741 66.4099 11.2693 66.2168 11.8483 65.9805C12.4269 65.7449 12.9773 65.4666 13.4992 65.1453C13.8124 64.9473 14.1775 64.6733 14.595 64.3242C15.0125 63.9751 15.4062 63.574 15.7764 63.1209C16.1462 62.6677 16.4593 62.177 16.7154 61.648C16.9719 61.1199 17.0997 60.5816 17.0997 60.034C17.0997 59.7608 17.0737 59.4822 17.0217 59.1988C16.9694 58.9155 16.8841 58.6421 16.7653 58.3777ZM87.9853 60.8555C88.0326 60.9028 88.0705 60.9287 88.0991 60.9334C88.1276 60.938 88.1655 60.917 88.2128 60.8694L89.4654 59.6238C89.5127 59.5762 89.534 59.5386 89.5293 59.5103C89.5246 59.4822 89.4986 59.4444 89.4513 59.397L88.2128 58.1653C88.1655 58.1182 88.1276 58.0923 88.0991 58.0874C88.0705 58.0825 88.0326 58.1038 87.9853 58.1514L86.7327 59.397C86.6855 59.4444 86.6638 59.4822 86.6688 59.5103C86.6735 59.5386 86.6995 59.5762 86.7473 59.6238L87.9853 60.8555ZM126.334 55.9849C126.382 56.032 126.42 56.0579 126.448 56.0625C126.476 56.0677 126.514 56.0464 126.562 55.9991L127.815 54.753C127.862 54.7058 127.883 54.668 127.879 54.6397C127.873 54.6114 127.847 54.574 127.8 54.5266L126.562 53.295C126.514 53.2478 126.476 53.222 126.448 53.2168C126.42 53.2122 126.382 53.2334 126.334 53.2806L125.082 54.5266C125.034 54.574 125.013 54.6114 125.018 54.6397C125.022 54.668 125.049 54.7058 125.096 54.753L126.334 55.9849ZM76.6002 60.8555C76.6475 60.9028 76.6854 60.9287 76.714 60.9334C76.7425 60.938 76.78 60.917 76.8277 60.8694L78.0803 59.6238C78.1276 59.5762 78.1489 59.5386 78.1442 59.5103C78.1391 59.4822 78.1131 59.4444 78.0658 59.397L76.8277 58.1653C76.78 58.1182 76.7425 58.0923 76.714 58.0874C76.6854 58.0825 76.6475 58.1038 76.6002 58.1514L75.3477 59.397C75.2999 59.4444 75.2786 59.4822 75.2838 59.5103C75.2885 59.5386 75.3144 59.5762 75.3617 59.6238L76.6002 60.8555ZM128.469 65.7683C128.203 65.8059 127.973 65.8179 127.779 65.8037C127.584 65.7896 127.416 65.7637 127.274 65.7258C127.055 65.6597 126.887 65.5703 126.768 65.4568C126.65 65.3435 126.562 65.2161 126.505 65.0745C126.448 64.9329 126.413 64.7773 126.399 64.6074C126.384 64.4375 126.372 64.2627 126.363 64.0835C126.325 62.9226 126.339 61.759 126.405 60.5935C126.472 59.428 126.529 58.2835 126.576 57.1599C126.586 57.0091 126.56 56.9453 126.498 56.9688C126.436 56.9925 126.372 57.0281 126.306 57.0752L124.057 58.7176C123.953 58.812 123.887 58.8897 123.858 58.9512C123.829 59.0127 123.815 59.1045 123.815 59.2271C123.787 60.1145 123.766 60.9712 123.751 61.7969C123.737 62.6228 123.739 63.418 123.758 64.1826C123.768 64.428 123.808 64.6733 123.879 64.919C123.95 65.1643 124.067 65.386 124.228 65.5842C124.475 65.8865 124.776 66.1201 125.132 66.2849C125.488 66.4502 125.831 66.533 126.164 66.533C126.647 66.533 127.091 66.4761 127.494 66.3628C127.897 66.2498 128.236 66.1128 128.512 65.9522C128.597 65.9053 128.635 65.8582 128.626 65.8106C128.616 65.7637 128.564 65.7495 128.469 65.7683ZM120.938 58.9583C120.89 58.8828 120.845 58.8355 120.802 58.8167C120.759 58.7976 120.69 58.8167 120.596 58.8731L118.418 59.9353C118.342 59.9729 118.283 60.0154 118.241 60.0625C118.198 60.1099 118.228 60.1946 118.333 60.3172C118.475 60.4871 118.634 60.6856 118.81 60.9119C118.985 61.1387 119.152 61.3819 119.308 61.6411C119.464 61.9011 119.597 62.1719 119.706 62.4556C119.815 62.7385 119.87 63.0217 119.87 63.3049C119.87 63.4273 119.808 63.522 119.685 63.5879C119.437 63.6919 119.117 63.7698 118.722 63.8215C118.328 63.8735 117.91 63.9114 117.468 63.9346C117.026 63.9585 116.585 63.9683 116.143 63.9631C115.701 63.9585 115.309 63.9512 114.967 63.9419C114.178 63.9136 113.501 63.8735 112.936 63.8215C112.37 63.7698 111.909 63.6401 111.553 63.4321C111.196 63.2246 110.94 62.9082 110.783 62.4834C110.626 62.0586 110.567 61.4595 110.605 60.6856C110.634 60.1192 110.664 59.565 110.698 59.022C110.731 58.4795 110.771 57.9246 110.819 57.3584C110.913 56.1783 111.006 55.0576 111.096 53.9956C111.186 52.9336 111.269 51.9805 111.345 51.1358C111.421 50.2911 111.485 49.5875 111.537 49.0259C111.589 48.4647 111.63 48.0938 111.658 47.9146C111.677 47.7823 111.663 47.7161 111.616 47.7161C111.568 47.7161 111.497 47.7544 111.402 47.8296L108.736 49.6277C108.604 49.7222 108.516 49.8189 108.474 49.918C108.431 50.0171 108.401 50.147 108.382 50.3072C108.325 50.8738 108.273 51.4754 108.226 52.1123C108.179 52.7498 108.134 53.3868 108.092 54.024C108.049 54.6609 108.011 55.2793 107.978 55.8787C107.945 56.4783 107.914 57.0257 107.886 57.521C107.858 58.0166 107.834 58.4412 107.815 58.7952C107.797 59.1494 107.782 59.397 107.773 59.5386C107.745 60.0484 107.733 60.5418 107.737 61.0181C107.742 61.4951 107.795 61.9548 107.894 62.3987C107.993 62.8423 108.152 63.2744 108.371 63.6939C108.589 64.1143 108.902 64.5274 109.31 64.9329C109.718 65.3486 110.119 65.6689 110.513 65.8958C110.906 66.1221 111.279 66.2876 111.63 66.3914C111.981 66.4951 112.306 66.5613 112.605 66.5896C112.904 66.6177 113.162 66.6367 113.38 66.646C113.636 66.665 113.99 66.6792 114.441 66.689C114.891 66.6978 115.344 66.7051 115.8 66.71C116.255 66.7148 116.658 66.7168 117.009 66.7168C117.36 66.7168 117.565 66.7168 117.622 66.7168C118.931 66.7168 119.936 66.3086 120.638 65.4922C121.341 64.676 121.692 63.4888 121.692 61.9317C121.692 61.365 121.632 60.8462 121.514 60.374C121.395 59.9024 121.203 59.4302 120.938 58.9583ZM138.497 51.6241C138.497 52.0489 138.403 52.4475 138.213 52.8206C138.023 53.1936 137.79 53.4881 137.516 53.7051C137.439 53.7718 137.385 53.7976 137.352 53.7832C137.318 53.7691 137.33 53.7102 137.387 53.6065C137.435 53.531 137.485 53.4126 137.537 53.2525C137.589 53.0918 137.615 52.9034 137.615 52.6858C137.615 52.5159 137.587 52.3318 137.53 52.1338C137.378 51.681 137.141 51.3316 136.818 51.0862C136.495 50.8409 136.068 50.7229 135.537 50.7322C135.148 50.7417 134.838 50.8362 134.605 51.0154C134.372 51.1946 134.199 51.4117 134.086 51.6665C134.028 51.7893 133.986 51.9476 133.957 52.1407C133.929 52.3345 133.91 52.4832 133.901 52.587L133.588 57.1035C133.588 57.179 133.625 57.2168 133.701 57.2168C134.195 57.2359 134.588 57.271 134.883 57.3228C135.177 57.3748 135.447 57.4668 135.694 57.5991C136.073 57.7876 136.329 58.1275 136.462 58.6184C136.528 58.8545 136.562 59.1189 136.562 59.4114C136.562 59.6753 136.534 59.9326 136.477 60.1829C136.419 60.4329 136.348 60.6524 136.263 60.8411C136.235 60.9072 136.209 60.938 136.185 60.9334C136.161 60.9287 136.144 60.8884 136.135 60.813C136.135 60.7754 136.125 60.7066 136.106 60.6074C136.088 60.5083 136.038 60.3977 135.957 60.2749C135.876 60.1524 135.755 60.0293 135.594 59.9068C135.433 59.7844 135.21 59.6802 134.925 59.5952C134.792 59.5576 134.614 59.5244 134.391 59.4961C134.169 59.4678 133.901 59.4539 133.588 59.4539C133.511 59.4539 133.474 59.4915 133.474 59.5669C133.445 60.2749 133.429 60.9072 133.424 61.4641C133.419 62.021 133.421 62.5381 133.431 63.0147C133.44 63.4912 133.457 63.947 133.481 64.3809C133.504 64.8149 133.53 65.2634 133.559 65.7258C133.568 65.8296 133.566 65.9407 133.552 66.0586C133.538 66.1768 133.509 66.2849 133.467 66.384C133.424 66.4834 133.362 66.5635 133.282 66.625C133.201 66.6863 133.094 66.7168 132.961 66.7168C132.8 66.7168 132.629 66.658 132.449 66.54C132.269 66.4219 132.084 66.2688 131.894 66.0798C131.704 65.8911 131.51 65.6787 131.31 65.4429C131.111 65.207 130.921 64.9663 130.741 64.7205C130.494 64.3997 130.25 64.0601 130.008 63.7012C129.766 63.3425 129.55 62.9675 129.361 62.5755C129.171 62.1841 129.014 61.7808 128.891 61.365C128.768 60.95 128.706 60.5205 128.706 60.0769C128.706 59.5103 128.808 59.0523 129.012 58.7031C129.216 58.3543 129.448 58.0779 129.709 57.875C129.97 57.6724 130.226 57.533 130.478 57.4575C130.729 57.3821 130.902 57.335 130.997 57.3159C131.083 57.3067 131.125 57.2591 131.125 57.1743L131.282 53.4927C131.31 53.021 131.341 52.6177 131.374 52.2823C131.407 51.9476 131.445 51.6573 131.488 51.4117C131.531 51.1663 131.583 50.9566 131.645 50.7815C131.707 50.6072 131.78 50.4395 131.865 50.2793C132.027 49.9485 132.235 49.6846 132.492 49.4861C132.748 49.2879 133.02 49.1348 133.31 49.0259C133.599 48.9175 133.893 48.8445 134.192 48.8062C134.491 48.7691 134.759 48.7501 134.996 48.7501C135.442 48.7501 135.883 48.816 136.32 48.9483C136.756 49.0806 137.155 49.3116 137.516 49.6416C137.8 49.897 138.035 50.1919 138.22 50.5267C138.405 50.8619 138.497 51.2278 138.497 51.6241ZM131.012 59.666C131.012 59.6192 131.004 59.5835 130.99 59.5598C130.976 59.5364 130.941 59.5293 130.883 59.5386C130.741 59.5576 130.601 59.5882 130.464 59.6304C130.326 59.6734 130.203 59.7322 130.094 59.8076C129.984 59.8831 129.894 59.9798 129.823 60.0982C129.752 60.2158 129.717 60.3552 129.717 60.5156C129.717 60.6763 129.745 60.8533 129.802 61.0466C129.859 61.2398 129.935 61.4409 130.03 61.648C130.124 61.8562 130.238 62.0586 130.371 62.2571C130.504 62.4556 130.646 62.6394 130.798 62.8093C130.855 62.8755 130.893 62.9014 130.912 62.887C130.931 62.8731 130.941 62.8284 130.941 62.7525C130.949 62.2149 130.959 61.6909 130.969 61.1809C130.978 60.6714 130.993 60.1663 131.012 59.666ZM149.992 61.7617C149.935 62.0923 149.838 62.4409 149.7 62.8093C149.562 63.1773 149.389 63.5361 149.181 63.8853C148.972 64.2349 148.73 64.5649 148.455 64.8765C148.179 65.188 147.871 65.4473 147.53 65.655C147.198 65.8726 146.854 66.04 146.498 66.1577C146.142 66.2759 145.784 66.3628 145.423 66.4197C145.063 66.4761 144.7 66.5093 144.335 66.519C143.969 66.5283 143.607 66.533 143.246 66.533C142.819 66.533 142.411 66.4927 142.022 66.4126C141.633 66.3325 141.275 66.231 140.948 66.1082C140.62 65.9858 140.331 65.8508 140.08 65.7046C139.828 65.5586 139.631 65.4194 139.489 65.2866C139.072 64.9097 138.758 64.4585 138.55 63.9346C138.341 63.4109 138.236 62.8657 138.236 62.2996C138.236 61.7993 138.31 61.3132 138.457 60.8411C138.604 60.3692 138.81 59.9353 139.076 59.5386C139.484 58.9346 140.008 58.4676 140.649 58.137C141.289 57.8067 141.965 57.6414 142.677 57.6414C143.075 57.6414 143.467 57.6936 143.851 57.7969C144.235 57.9014 144.577 58.0615 144.876 58.2783C145.175 58.4959 145.414 58.7739 145.594 59.1138C145.774 59.4539 145.865 59.8599 145.865 60.3316C145.865 60.6902 145.801 61.042 145.673 61.3862C145.544 61.731 145.343 62.0401 145.068 62.3135C144.859 62.5215 144.61 62.6819 144.321 62.7949C144.031 62.9082 143.72 62.9649 143.389 62.9649C142.715 62.9649 142.141 62.8001 141.667 62.4695C141.192 62.1392 140.855 61.6624 140.656 61.0393C140.608 60.917 140.552 60.917 140.485 61.0393C140.362 61.2569 140.288 61.4453 140.264 61.6057C140.24 61.7664 140.224 61.9172 140.215 62.0586C140.195 62.4649 140.316 62.8115 140.578 63.0994C140.838 63.3875 141.197 63.6069 141.652 63.7578C141.899 63.8335 142.176 63.8877 142.485 63.9207C142.793 63.9536 143.123 63.9702 143.474 63.9702C143.986 63.9702 144.515 63.9397 145.061 63.8784C145.606 63.8169 146.121 63.7249 146.605 63.6021C146.899 63.5361 147.193 63.4443 147.487 63.3262C147.781 63.2083 148.066 63.0713 148.341 62.9153C148.616 62.7598 148.872 62.5806 149.109 62.3775C149.347 62.1743 149.56 61.9502 149.75 61.7048C149.835 61.5918 149.902 61.5562 149.949 61.5989C149.996 61.6411 150.011 61.6956 149.992 61.7617ZM141.517 59.8501C141.512 59.8784 141.519 59.9163 141.538 59.9634C141.605 60.1333 141.685 60.301 141.78 60.4658C141.875 60.6314 141.994 60.7825 142.136 60.919C142.278 61.0559 142.444 61.1646 142.634 61.2446C142.824 61.3252 143.047 61.365 143.303 61.365C143.635 61.365 143.891 61.2754 144.072 61.0962C144.252 60.917 144.342 60.6477 144.342 60.2891C144.342 59.9307 144.207 59.6402 143.937 59.4182C143.666 59.1966 143.332 59.0855 142.933 59.0855C142.734 59.0762 142.506 59.1189 142.25 59.2129C141.994 59.3076 141.761 59.4915 141.552 59.7654C141.534 59.7932 141.522 59.8218 141.517 59.8501ZM44.4767 62.9793C44.5287 63.3286 44.5551 63.6826 44.5551 64.041C44.5551 64.2109 44.5457 64.3765 44.5266 64.5366C44.5074 64.6973 44.4746 64.8435 44.4268 64.9756C44.3225 65.2588 44.1516 65.4949 43.9147 65.6836C43.6774 65.8726 43.3975 66.0281 43.075 66.1506C42.7525 66.2734 42.4036 66.365 42.0291 66.427C41.6542 66.488 41.2818 66.533 40.9116 66.5613C40.5418 66.5896 40.186 66.6035 39.8444 66.6035C39.5027 66.6035 39.2087 66.6035 38.962 66.6035H36.6993C36.073 66.6035 35.4727 66.5825 34.8989 66.54C34.3246 66.4976 33.7911 66.4006 33.2978 66.2498C32.8044 66.0989 32.3605 65.8745 31.9673 65.5772C31.5732 65.28 31.2485 64.8765 30.9921 64.3667C30.9354 64.6497 30.8498 64.9214 30.736 65.1807C30.6223 65.4407 30.4655 65.6716 30.2665 65.8745C30.0671 66.0776 29.8157 66.2378 29.512 66.3562C29.2083 66.4739 28.8384 66.533 28.4022 66.533H27.6907C27.5859 66.533 27.4581 66.5283 27.3064 66.519C27.1543 66.5093 26.9907 66.4834 26.8151 66.4409C26.6396 66.3984 26.4641 66.3418 26.2886 66.271C26.113 66.2002 25.9588 66.0989 25.8263 65.9666C25.5792 65.7397 25.3968 65.4995 25.278 65.2444C25.1595 64.9898 25.079 64.7302 25.0364 64.4658C24.9934 64.2017 24.9721 63.9346 24.9721 63.666C24.9721 63.397 24.9721 63.1304 24.9721 62.8657C24.9721 62.6773 24.9742 62.5144 24.9793 62.3775C24.984 62.2407 24.9913 62.1011 25.0006 61.9595C25.01 61.8179 25.022 61.6577 25.0364 61.4785C25.0505 61.2993 25.0671 61.0725 25.0863 60.7986C25.0952 60.6287 25.0646 60.5205 24.9934 60.4732C24.9222 60.426 24.8251 60.4639 24.702 60.5864C24.0186 61.2661 23.345 62.052 22.6808 62.9439C22.0167 63.8355 21.3716 64.8528 20.7454 65.9951C20.6602 66.1558 20.5604 66.3159 20.4467 66.4761C20.3325 66.6367 20.1621 66.7168 19.9341 66.7168C19.6968 66.7168 19.526 66.627 19.4216 66.4482C19.3173 66.2688 19.2559 66.0513 19.2367 65.7966C19.2082 65.2212 19.1894 64.6311 19.18 64.0266C19.1703 63.4231 19.1703 62.762 19.18 62.0447C19.1894 61.3277 19.206 60.5298 19.2299 59.6519C19.2534 58.7739 19.284 57.7691 19.3224 56.636C19.3696 55.211 19.4523 53.9131 19.5712 52.7427C19.6896 51.5723 19.8012 50.553 19.9056 49.6846C19.9341 49.4676 19.9627 49.3189 19.9913 49.2383C20.0193 49.1583 20.0858 49.0755 20.1902 48.9908L22.51 47.0508C22.5858 46.9944 22.6357 46.9849 22.6595 47.0225C22.683 47.0606 22.6855 47.1168 22.6668 47.1924C22.6284 47.4476 22.5743 47.8577 22.5032 48.4244C22.4321 48.9908 22.3536 49.6846 22.268 50.5054C22.1828 51.3269 22.0976 52.2564 22.012 53.295C21.9268 54.3333 21.8505 55.4517 21.7845 56.6504C21.7845 56.6785 21.7794 56.7874 21.77 56.9761C21.7606 57.1651 21.7487 57.3985 21.7346 57.6765C21.7201 57.9556 21.7082 58.2644 21.6988 58.604C21.6894 58.9439 21.6775 59.2818 21.6634 59.6165C21.649 59.9517 21.6396 60.27 21.6349 60.5723C21.6298 60.8745 21.6277 61.1245 21.6277 61.3225C21.6277 61.4356 21.649 61.509 21.692 61.542C21.7346 61.5752 21.7938 61.5349 21.8697 61.4216C21.9455 61.3179 22.0571 61.1597 22.2041 60.9473C22.3511 60.7351 22.5406 60.4898 22.7733 60.2112C23.0059 59.9326 23.2786 59.626 23.5917 59.291C23.9048 58.9558 24.2653 58.6138 24.6735 58.2644C24.9866 57.9907 25.2354 57.8186 25.4207 57.7478C25.6056 57.6765 25.7927 57.6414 25.9827 57.6414C26.1156 57.6414 26.2766 57.6743 26.4667 57.7407C26.6562 57.8067 26.8126 57.896 26.9362 58.0093C27.0878 58.1421 27.1854 58.314 27.228 58.5264C27.2706 58.7388 27.2825 59.0008 27.2634 59.3123C27.2352 59.7461 27.2016 60.2066 27.1641 60.6926C27.1257 61.1787 27.0831 61.7048 27.0358 62.271C26.9881 62.7432 27.0593 63.1255 27.2493 63.418C27.4389 63.7109 27.8185 63.8572 28.3877 63.8572C28.7673 63.8572 29.0519 63.8003 29.2419 63.6873C29.4315 63.574 29.5925 63.4512 29.7255 63.3189C29.9435 63.0925 30.0978 62.8472 30.1881 62.5825C30.278 62.3186 30.3589 62.0303 30.4301 61.7188C30.5013 61.4077 30.5937 61.0703 30.7075 60.7066C30.8217 60.3435 31.0159 59.9539 31.2911 59.5386C31.6989 58.9346 32.2233 58.4676 32.8636 58.137C33.504 57.8067 34.1801 57.6414 34.8916 57.6414C35.2904 57.6414 35.6815 57.6936 36.0658 57.7969C36.4501 57.9014 36.7917 58.0615 37.0904 58.2783C37.3895 58.4959 37.6289 58.7739 37.8091 59.1138C37.9894 59.4539 38.0797 59.8599 38.0797 60.3316C38.0797 60.6902 38.0157 61.042 37.8875 61.3862C37.7593 61.731 37.5578 62.0401 37.2825 62.3135C37.0738 62.5215 36.825 62.6819 36.5357 62.7949C36.246 62.9082 35.9354 62.9649 35.6035 62.9649C34.9295 62.9649 34.3557 62.8001 33.8815 62.4695C33.4069 62.1392 33.0703 61.6624 32.8709 61.0393C32.8232 60.917 32.7665 60.917 32.7001 61.0393C32.5765 61.2569 32.5007 61.4453 32.4725 61.6057C32.444 61.7664 32.4295 61.9172 32.4295 62.0586C32.4295 62.5215 32.5624 62.8921 32.8283 63.1699C33.0938 63.449 33.4354 63.6614 33.8529 63.8076C34.27 63.9536 34.7374 64.0483 35.2546 64.0908C35.7718 64.1331 36.2814 64.1543 36.7845 64.1543L38.8909 64.1401C39.4034 64.1401 39.875 64.1357 40.307 64.126C40.7386 64.1165 41.1395 64.0859 41.5093 64.0339C41.8795 63.9822 42.2161 63.8994 42.5199 63.7864C42.8237 63.6729 43.0985 63.5078 43.3456 63.2905C43.5164 63.1397 43.6587 62.9463 43.7725 62.7102C43.8862 62.4741 43.9667 62.2385 44.0145 62.0025C44.0332 61.8985 44.0737 61.8303 44.1354 61.7969C44.1968 61.7637 44.2466 61.8325 44.2845 62.0025C44.3604 62.3047 44.4247 62.6301 44.4767 62.9793ZM33.7319 59.8501C33.7268 59.8784 33.7341 59.9163 33.7532 59.9634C33.8193 60.1333 33.9002 60.301 33.9952 60.4658C34.0898 60.6314 34.2087 60.7825 34.351 60.919C34.4933 61.0559 34.659 61.1646 34.849 61.2446C35.0386 61.3252 35.2618 61.365 35.5179 61.365C35.8498 61.365 36.1063 61.2754 36.2865 61.0962C36.4667 60.917 36.557 60.6477 36.557 60.2891C36.557 59.9307 36.4215 59.6402 36.1514 59.4182C35.8809 59.1966 35.5464 59.0855 35.1481 59.0855C34.9487 59.0855 34.7208 59.1304 34.4647 59.2202C34.2087 59.3096 33.9761 59.4915 33.7673 59.7654C33.7481 59.7932 33.7366 59.8218 33.7319 59.8501ZM50.8682 65.7683C50.6023 65.8059 50.3723 65.8179 50.178 65.8037C49.9833 65.7896 49.815 65.7637 49.6727 65.7258C49.4546 65.6597 49.2858 65.5703 49.1674 65.4568C49.049 65.3435 48.9612 65.2161 48.9041 65.0745C48.8475 64.9329 48.8116 64.7773 48.7976 64.6074C48.7831 64.4375 48.7712 64.2627 48.7618 64.0835C48.7239 62.9226 48.738 61.759 48.8044 60.5935C48.8709 59.428 48.928 58.2835 48.9753 57.1599C48.9846 57.0091 48.9586 56.9453 48.8973 56.9688C48.8351 56.9925 48.7712 57.0281 48.7051 57.0752L46.4565 58.7176C46.3517 58.812 46.2856 58.8897 46.2571 58.9512C46.2286 59.0127 46.2145 59.1045 46.2145 59.2271C46.186 60.1145 46.1647 60.9712 46.1502 61.7969C46.1361 62.6228 46.1382 63.418 46.1574 64.1826C46.1668 64.428 46.2073 64.6733 46.2784 64.919C46.3496 65.1643 46.4659 65.386 46.6274 65.5842C46.8736 65.8865 47.1752 66.1201 47.531 66.2849C47.8867 66.4502 48.2305 66.533 48.5629 66.533C49.0464 66.533 49.4899 66.4761 49.8934 66.3628C50.2965 66.2498 50.6356 66.1128 50.9108 65.9522C50.9964 65.9053 51.0339 65.8582 51.025 65.8106C51.0151 65.7637 50.9628 65.7495 50.8682 65.7683ZM82.2359 62.0447C82.1882 61.8277 82.1434 61.7285 82.1004 61.7471C82.0578 61.7664 82.0126 61.8609 81.9653 62.0303C81.9083 62.3047 81.835 62.5427 81.7446 62.7454C81.6544 62.9485 81.5286 63.1116 81.3676 63.2341C81.2254 63.3472 81.0213 63.4392 80.7558 63.51C80.49 63.5808 80.1389 63.6401 79.7026 63.6873C79.2659 63.7341 78.7394 63.7673 78.1229 63.7864C77.506 63.8049 76.78 63.8145 75.9454 63.8145C75.7081 63.8145 75.4047 63.8096 75.0345 63.8003C74.6643 63.791 74.2804 63.7673 73.8817 63.7295C73.4833 63.6924 73.1037 63.6379 72.7433 63.5671C72.3824 63.4968 72.0978 63.4002 71.8895 63.2778C71.6995 63.1553 71.5784 62.9832 71.5265 62.762C71.4741 62.541 71.4575 62.2749 71.4766 61.9639C71.486 61.6817 71.5001 61.4251 71.5192 61.1941C71.538 60.9634 71.5551 60.7444 71.5691 60.5371C71.5831 60.3303 71.5977 60.1277 71.6117 59.9297C71.6262 59.732 71.6424 59.5249 71.6616 59.3084C71.6803 58.9978 71.6688 58.7364 71.6262 58.5244C71.5831 58.3125 71.486 58.1402 71.3344 58.0083C71.2108 57.8958 71.0545 57.8062 70.8644 57.7403C70.6748 57.6743 70.5134 57.6414 70.3809 57.6414C70.1909 57.6414 70.0034 57.6765 69.8185 57.7473C69.6336 57.8181 69.3843 57.9903 69.0712 58.2632C68.6635 58.6116 68.303 58.9527 67.9899 59.2871C67.6768 59.6216 67.4037 59.9278 67.1715 60.2053C66.9389 60.4834 66.7493 60.7283 66.6023 60.9402C66.4549 61.1521 66.3437 61.3098 66.2679 61.4131C66.1916 61.5264 66.1324 61.5662 66.0898 61.5337C66.0472 61.5005 66.0259 61.4277 66.0259 61.3145C66.0259 61.0791 66.028 60.7656 66.0331 60.3748C66.0378 59.9839 66.0472 59.5698 66.0612 59.1316C66.0757 58.6939 66.0919 58.2559 66.1111 57.8174C66.1303 57.3789 66.149 56.99 66.1682 56.6504C66.244 55.4517 66.3245 54.3333 66.4102 53.295C66.4954 52.2564 66.581 51.3269 66.6662 50.5054C66.7514 49.6846 66.8273 48.9908 66.8942 48.4244C66.9602 47.8577 67.0126 47.4476 67.0505 47.1924C67.0692 47.1168 67.0671 47.0606 67.0433 47.0225C67.0194 46.9849 66.97 46.9944 66.8942 47.0508L64.5743 48.9908C64.4696 49.0755 64.4035 49.1583 64.3749 49.2383C64.3464 49.3189 64.3179 49.4676 64.2893 49.6846C64.1849 50.553 64.0737 51.5723 63.9549 52.7427C63.8364 53.9131 63.7534 55.211 63.7061 56.636C63.6869 57.1743 63.6729 57.6153 63.6635 57.959C63.6537 58.303 63.6443 58.6092 63.635 58.8777C63.6251 59.146 63.6183 59.405 63.6137 59.6548C63.6085 59.9038 63.6017 60.2031 63.5923 60.5515C63.5825 61.0318 63.5374 61.4795 63.4569 61.8936C63.3763 62.3081 63.2366 62.6682 63.0372 62.9741C62.8378 63.2803 62.5698 63.5181 62.2332 63.6875C61.8962 63.8572 61.4621 63.9419 60.9309 63.9419C60.7315 63.9419 60.4827 63.9373 60.1835 63.928C59.8849 63.9185 59.5765 63.8928 59.2586 63.8499C58.9408 63.8081 58.6277 63.7444 58.3192 63.6592C58.0107 63.5747 57.7474 63.4617 57.5293 63.3201C57.3679 63.2075 57.2328 63.0708 57.1237 62.9107C57.0147 62.7505 56.9602 62.5437 56.9602 62.2893C56.9602 62.157 56.9862 62.0303 57.0385 61.9077C57.0905 61.7854 57.1596 61.6768 57.2448 61.5828C57.5864 61.1873 57.9089 60.853 58.2127 60.5796C58.5161 60.3067 58.8079 60.0713 59.0878 59.8733C59.3677 59.6753 59.6404 59.5083 59.9062 59.3721C60.1716 59.2354 60.4375 59.1057 60.7033 58.9834C60.8358 58.927 60.8904 58.8467 60.867 58.7434C60.8431 58.6399 60.7979 58.5501 60.7315 58.4746C60.5606 58.2771 60.4115 58.117 60.2833 57.9944C60.155 57.8721 60.0434 57.7774 59.9488 57.7117C59.8538 57.6455 59.7754 57.6038 59.7141 57.5845C59.6523 57.5659 59.6024 57.5567 59.5645 57.5567C59.2893 57.5659 59.0073 57.6487 58.718 57.8042C58.4283 57.9602 58.1343 58.168 57.8356 58.4273C57.5366 58.687 57.2448 58.9842 56.9602 59.3189C56.6755 59.6543 56.4075 59.9966 56.1562 60.3455C55.9044 60.6948 55.6743 61.0393 55.466 61.3794C55.2573 61.7188 55.0817 62.0256 54.9394 62.2996C54.8823 62.4126 54.8278 62.4695 54.7758 62.4695C54.7234 62.4695 54.6975 62.3799 54.6975 62.2002C54.6975 61.8985 54.7021 61.502 54.7115 61.011C54.7209 60.5205 54.7328 60.0108 54.7473 59.4822C54.7614 58.9536 54.7801 58.4343 54.804 57.9246C54.8278 57.4146 54.8491 56.99 54.8683 56.6504C54.9441 55.4517 55.0246 54.3333 55.1102 53.295C55.1955 52.2564 55.2807 51.3269 55.3663 50.5054C55.4515 49.6846 55.5273 48.9908 55.5938 48.4244C55.6603 47.8577 55.7123 47.4476 55.7506 47.1924C55.7694 47.1168 55.7668 47.0606 55.7434 47.0225C55.7195 46.9849 55.6697 46.9944 55.5938 47.0508L53.2741 48.9908C53.1696 49.0755 53.1032 49.1583 53.0751 49.2383C53.0465 49.3189 53.0179 49.4676 52.9894 49.6846C52.8851 50.553 52.7734 51.5723 52.655 52.7427C52.5361 53.9131 52.4535 55.211 52.4062 56.636C52.3679 57.7691 52.3372 58.7671 52.3137 59.6304C52.2899 60.4944 52.2733 61.2754 52.2639 61.9741C52.2541 62.6724 52.2567 63.3167 52.2707 63.9067C52.2852 64.4966 52.3112 65.0796 52.3491 65.655C52.3679 65.9099 52.4296 66.1272 52.534 66.3066C52.6384 66.4854 52.8092 66.5752 53.0465 66.5752C53.2548 66.5752 53.4308 66.5164 53.5731 66.3984C53.7154 66.2808 53.8671 66.1272 54.0286 65.9382C54.1231 65.8345 54.2466 65.6741 54.3983 65.4568C54.55 65.2398 54.6996 65.0181 54.847 64.7913C54.994 64.5649 55.129 64.3572 55.2526 64.1682C55.3757 63.9795 55.4562 63.8572 55.4941 63.8003C55.57 63.6965 55.6224 63.6516 55.6509 63.666C55.6794 63.6799 55.7029 63.7341 55.722 63.8286C55.7881 64.2534 55.9215 64.6336 56.1204 64.9685C56.3198 65.3037 56.5852 65.5796 56.9175 65.7966C57.0505 65.8814 57.2235 65.9739 57.4369 66.0725C57.6503 66.1719 57.9111 66.2617 58.2195 66.3418C58.528 66.4219 58.8863 66.488 59.294 66.54C59.7022 66.5918 60.1622 66.6177 60.6748 66.6177C61.149 66.6177 61.5499 66.5752 61.8771 66.4897C62.2047 66.4045 62.4821 66.2883 62.71 66.1411C62.9375 65.9941 63.1202 65.8208 63.2579 65.6216C63.3951 65.4224 63.5161 65.2041 63.6204 64.9668L63.635 65.792C63.6443 66.0479 63.7035 66.2666 63.8126 66.4468C63.9216 66.6265 64.095 66.7168 64.3323 66.7168C64.5599 66.7168 64.7307 66.6367 64.8444 66.4761C64.9586 66.3159 65.0579 66.1558 65.1436 65.9951C65.7698 64.8528 66.4149 63.8335 67.079 62.9365C67.7428 62.0401 68.4168 61.2569 69.0997 60.5864C69.2229 60.4732 69.3204 60.4307 69.3916 60.4588C69.4628 60.4871 69.4934 60.5816 69.4841 60.7422C69.4649 61.0161 69.4487 61.2446 69.4342 61.429C69.4201 61.6128 69.4103 61.7808 69.4056 61.9317C69.4009 62.0825 69.3937 62.2312 69.3843 62.3775C69.375 62.5237 69.3703 62.6865 69.3703 62.8657C69.3703 63.0264 69.3724 63.2105 69.3775 63.418C69.3822 63.6257 69.4035 63.8428 69.4414 64.0693C69.4794 64.2959 69.536 64.5225 69.6123 64.749C69.6881 64.9756 69.7972 65.1834 69.9395 65.3721C70.1576 65.6646 70.409 65.8726 70.694 65.9951C70.9786 66.1174 71.2772 66.2073 71.5904 66.2637C71.8656 66.3206 72.1668 66.3628 72.494 66.3914C72.8217 66.4197 73.1608 66.4409 73.5118 66.4548C73.8625 66.4692 74.2208 66.4785 74.5863 66.4834C74.9514 66.488 75.3144 66.4905 75.6749 66.4905L79.7026 66.533C80.1862 66.533 80.5871 66.488 80.9049 66.3977C81.2228 66.3079 81.4793 66.1892 81.6735 66.042C81.8678 65.895 82.0173 65.7268 82.1217 65.5369C82.2261 65.3469 82.3117 65.157 82.3782 64.9673C82.4634 64.7112 82.506 64.4026 82.506 64.042C82.506 63.7114 82.4779 63.3684 82.4208 63.0147C82.3637 62.6607 82.302 62.3372 82.2359 62.0447ZM97.7911 57.4644C97.6961 57.4502 97.599 57.4385 97.4993 57.4292C97.3996 57.4197 97.302 57.4126 97.2074 57.4077C97.1124 57.4033 97.0319 57.4007 96.9654 57.4007C96.4435 57.4007 95.9144 57.4595 95.3789 57.5779C94.8425 57.6958 94.3419 57.8775 93.877 58.1228C93.4122 58.3682 93.0092 58.6797 92.6675 59.0571C92.3258 59.4346 92.0885 59.8877 91.956 60.4163C91.8798 60.6902 91.861 60.938 91.8989 61.1597C91.9368 61.3819 91.994 61.5493 92.0698 61.6624C92.155 61.804 92.2641 61.9172 92.397 62.0025C92.5299 62.0872 92.6795 62.1506 92.8456 62.1936C93.0113 62.2359 93.1822 62.2642 93.3577 62.2783C93.5332 62.2922 93.7066 62.3047 93.877 62.3135C94.0671 62.3233 94.2473 62.335 94.4181 62.3491C94.5889 62.363 94.736 62.3867 94.8591 62.4199C94.9822 62.4529 95.0772 62.5 95.1437 62.5615C95.2102 62.6228 95.2387 62.7009 95.2293 62.7949C95.2008 62.9839 95.0657 63.1541 94.8237 63.3049C94.5817 63.4558 94.2473 63.5786 93.8204 63.6729C93.5452 63.7295 93.2414 63.7791 92.9095 63.8215C92.5772 63.8638 92.2428 63.8994 91.9062 63.928C91.5692 63.9558 91.2492 63.9751 90.9454 63.9844C90.6417 63.9942 90.3763 63.9988 90.1483 63.9988C88.7062 63.9988 87.5248 63.9373 86.6049 63.8145C85.6843 63.6919 85.0866 63.522 84.8117 63.3049C84.6217 63.1541 84.4841 62.97 84.3989 62.7525C84.3132 62.5357 84.2468 62.2996 84.1995 62.0447C84.1616 61.884 84.1237 61.7993 84.0858 61.7901C84.0479 61.7808 84.01 61.8655 83.972 62.0447C83.9341 62.2617 83.903 62.4956 83.8796 62.7454C83.8557 62.9959 83.8438 63.2434 83.8438 63.4888C83.8438 63.7437 83.8583 63.9961 83.8864 64.2461C83.9149 64.4966 83.9669 64.7158 84.0432 64.9048C84.119 65.0842 84.2374 65.2681 84.3989 65.4568C84.56 65.6458 84.7713 65.8179 85.032 65.9739C85.2932 66.1294 85.6157 66.2568 86 66.3562C86.3843 66.4548 86.8325 66.5093 87.345 66.519C87.5917 66.519 87.8119 66.521 88.0066 66.5256C88.2009 66.5303 88.4122 66.533 88.6397 66.533C88.8676 66.533 89.1258 66.5303 89.4155 66.5256C89.7048 66.521 90.0678 66.5137 90.5045 66.5044C91.2445 66.4951 91.8989 66.4431 92.4682 66.3489C93.0377 66.2544 93.5405 66.1387 93.9768 66.0017C94.413 65.8652 94.7879 65.7139 95.1011 65.5488C95.4142 65.3838 95.6848 65.2256 95.9122 65.0745C96.4056 64.7441 96.8159 64.3316 97.1435 63.8355C97.4707 63.3401 97.6343 62.814 97.6343 62.2571C97.6343 62.0025 97.5751 61.7969 97.4567 61.6411C97.3378 61.4854 97.1835 61.365 96.994 61.2803C96.804 61.1953 96.5905 61.1387 96.3537 61.1101C96.1163 61.0818 95.8743 61.0586 95.6276 61.0393C95.3051 61.0208 95.0372 60.9995 94.8237 60.9758C94.6102 60.9522 94.4415 60.919 94.3184 60.8767C94.1949 60.8342 94.1122 60.7754 94.0692 60.6995C94.0266 60.624 94.01 60.5205 94.0194 60.388C94.0385 60.1333 94.1476 59.926 94.347 59.7654C94.5459 59.6048 94.7739 59.4822 95.0299 59.397C95.2293 59.3216 95.45 59.2818 95.6915 59.2766C95.9335 59.272 96.1636 59.2886 96.3822 59.3262C96.5147 59.3452 96.6071 59.3452 96.6595 59.3262C96.7115 59.3076 96.7664 59.2652 96.8231 59.1988L98.0897 57.8255C98.1941 57.7122 98.2367 57.6392 98.218 57.6057C98.1988 57.5733 98.137 57.5423 98.0331 57.5137C97.9662 57.4951 97.8857 57.4785 97.7911 57.4644Z" fill="black"/>
</g>
<defs>
<clipPath id="clip0">
<rect width="60" height="48" fill="white" transform="translate(47)"/>
</clipPath>
<clipPath id="clip1">
<rect width="150" height="20" fill="white" transform="translate(0 47)"/>
</clipPath>
</defs>
</svg>
